Coordinates
version=1
nRows=24
nColumns=24
inDegrees=yes

Units are S.I. units (second, meters, Newtons, ...)
Angles are in degrees.

endheader
time	pelvis_tilt	pelvis_list	pelvis_rotation	pelvis_tx	pelvis_ty	pelvis_tz	hip_flexion_r	hip_adduction_r	hip_rotation_r	knee_angle_r	ankle_angle_r	subtalar_angle_r	mtp_angle_r	hip_flexion_l	hip_adduction_l	hip_rotation_l	knee_angle_l	ankle_angle_l	subtalar_angle_l	mtp_angle_l	lumbar_extension	lumbar_bending	lumbar_rotation
      1.26650000	     -0.52346933	      3.37351992	     -3.10557868	      0.16532175	      0.90686231	      0.31357535	     17.39068976	     -7.19414030	     -9.69331312	    -72.69964751	     -3.64807717	      3.28035474	     10.60860877	     14.06205666	      7.17549765	     -2.78977440	    -21.65246588	      9.37914579	     -9.37028647	      2.82973631	     -4.51639358	     -7.76344129	      3.10852226
      1.27066667	     -0.48290265	      3.20533137	     -2.97921592	      0.17055394	      0.90810496	      0.31335099	     17.93904129	     -6.98162865	     -9.80140118	    -72.25741992	     -3.11730185	      3.06979515	     10.43992411	     13.38459303	      7.05962708	     -2.60361894	    -21.15462841	      9.46222801	     -9.27948167	      2.83447646	     -4.63185447	     -7.54421196	      2.77460265
      1.27483333	     -0.47123817	      3.04130653	     -2.85620242	      0.17579031	      0.90928421	      0.31313796	     18.50412343	     -6.76732707	     -9.89883907	    -71.74825638	     -2.60174354	      2.88609724	     10.26102397	     12.73909034	      6.93845405	     -2.44134865	    -20.65072377	      9.52302517	     -9.18222181	      2.84208542	     -4.67818813	     -7.33692903	      2.51624455
      1.27900000	     -0.45709789	      2.88675023	     -2.72717548	      0.18102501	      0.91044520	      0.31293558	     19.04696367	     -6.55982007	     -9.99333930	    -71.17175309	     -2.09067388	      2.71862839	      9.93136001	     12.08660942	      6.82389954	     -2.27673581	    -20.12914734	      9.54071888	     -9.08126973	      2.86055598	     -4.72489488	     -7.17111924	      2.19835512
      1.28316667	     -0.42574352	      2.72180145	     -2.59856876	      0.18625188	      0.91160464	      0.31270112	     19.55131749	     -6.34721658	    -10.09441791	    -70.52754892	     -1.59436821	      2.58067596	      9.54286188	     11.41389684	      6.69789306	     -2.11842152	    -19.60200157	      9.57846500	     -8.97874730	      2.89221573	     -4.80553746	     -6.92970511	      1.94800241
      1.28733333	     -0.38809288	      2.53398631	     -2.45535708	      0.19148112	      0.91276737	      0.31247616	     20.01374283	     -6.10425607	    -10.20606806	    -69.79053244	     -1.12969365	      2.46826810	      9.31935834	     10.73760577	      6.54200972	     -1.95602579	    -19.08199462	      9.62302866	     -8.86718777	      2.91814837	     -4.87950984	     -6.70823667	      1.74958467
      1.29150000	     -0.39117916	      2.35200212	     -2.31291482	      0.19669925	      0.91381638	      0.31222993	     20.51064719	     -5.87019178	    -10.31602271	    -69.00512177	     -0.65932606	      2.36895825	      9.28057059	     10.11643573	      6.38535863	     -1.82049644	    -18.57642855	      9.65525701	     -8.75092576	      2.92607943	     -4.88735069	     -6.44212804	      1.65481926
      1.29566667	     -0.31499228	      2.14385220	     -2.15243744	      0.20190054	      0.91499107	      0.31200300	     20.87848455	     -5.60278627	    -10.43672229	    -68.11515226	     -0.24036997	      2.29967626	      9.20646234	      9.39972494	      6.20276618	     -1.63548861	    -18.05119157	      9.68837295	     -8.63357383	      2.94042146	     -5.04143352	     -6.20815820	      1.41518741
      1.29983333	     -0.23478263	      1.97018942	     -1.99653983	      0.20712235	      0.91610743	      0.31173218	     21.23347743	     -5.39051058	    -10.56104434	    -67.18674377	      0.14641988	      2.23260692	      9.07710658	      8.66586490	      6.05792452	     -1.46893599	    -17.48907767	      9.73065116	     -8.52340111	      2.96611554	     -5.16835315	     -5.97110297	      1.08692736
      1.30400000	     -0.18837349	      1.77323989	     -1.82334731	      0.21231418	      0.91713590	      0.31147794	     21.59800195	     -5.14278460	    -10.69174201	    -66.18537145	      0.56442702	      2.16479852	      8.99341123	      7.99509548	      5.87673484	     -1.31367760	    -16.97692304	      9.73190838	     -8.40600558	      2.98515207	     -5.25751472	     -5.73050244	      0.88584112
      1.30816667	     -0.10272425	      1.59746854	     -1.65655944	      0.21751998	      0.91817144	      0.31119321	     21.90525915	     -4.93023937	    -10.82040811	    -65.13283507	      0.91705965	      2.10088461	      8.87234702	      7.26186043	      5.72129702	     -1.15346402	    -16.41820533	      9.77314690	     -8.28566448	      3.01459288	     -5.39241747	     -5.48445315	      0.59927898
      1.31233333	     -0.02898640	      1.41515496	     -1.47689353	      0.22270982	      0.91914436	      0.31091453	     22.20049058	     -4.70753430	    -10.95605089	    -64.01385155	      1.27130522	      2.02975763	      8.74699339	      6.55703852	      5.55163162	     -0.99863836	    -15.88584028	      9.79051342	     -8.16296482	      3.04663582	     -5.51292400	     -5.24508808	      0.34107401
      1.31650000	      0.04922818	      1.23721242	     -1.29146056	      0.22788635	      0.92006860	      0.31062734	     22.47212170	     -4.49150696	    -11.09186880	    -62.83890926	      1.60071664	      1.95044525	      8.62512023	      5.85294492	      5.38205411	     -0.84926184	    -15.35874007	      9.80967519	     -8.03485018	      3.07983677	     -5.64031909	     -5.00754677	      0.09636865
      1.32066667	      0.11460780	      1.05410375	     -1.09246045	      0.23304796	      0.92092195	      0.31034202	     22.73379873	     -4.26888611	    -11.23610127	    -61.60159394	      1.92588874	      1.86178264	      8.53130186	      5.18137528	      5.19913958	     -0.71184606	    -14.86243909	      9.80335701	     -7.90279916	      3.10683300	     -5.75382383	     -4.77175530	     -0.11364286
      1.32483333	      0.20777646	      0.90667587	     -0.89752355	      0.23821683	      0.92174053	      0.31004047	     22.95741714	     -4.09207189	    -11.36946069	    -60.33484433	      2.20396824	      1.72670843	      8.24110034	      4.46043474	      5.05628957	     -0.55650260	    -14.32158002	      9.81400820	     -7.76630864	      3.19219845	     -5.90376574	     -4.57227469	     -0.51969512
      1.32900000	      0.27615091	      0.72873706	     -0.69038002	      0.24337920	      0.92248367	      0.30974551	     23.17318866	     -3.87981493	    -11.51993180	    -58.98099222	      2.44544593	      1.63188133	      8.14719125	      3.79349947	      4.87094532	     -0.41691345	    -13.83698007	      9.85602438	     -7.63475866	      3.22224030	     -6.00981665	     -4.32769077	     -0.65298106
      1.33316667	      0.37783019	      0.58539667	     -0.49518731	      0.24854529	      0.92319627	      0.30944404	     23.34690110	     -3.70525982	    -11.64754867	    -57.60055352	      2.63154255	      1.45851614	      8.00227494	      3.07376210	      4.72289537	     -0.27650450	    -13.31456838	      9.90999576	     -7.48502805	      3.26848876	     -6.16488507	     -4.12351462	     -0.93100177
      1.33733333	      0.44445613	      0.43143142	     -0.27108315	      0.25368870	      0.92380397	      0.30913150	     23.52944749	     -3.52370728	    -11.80049626	    -56.15614629	      2.83350716	      1.30301178	      7.90165177	      2.42694421	      4.55390871	     -0.14198239	    -12.85485749	      9.92047314	     -7.34128947	      3.30087249	     -6.27542177	     -3.91002311	     -1.13850418
      1.34150000	      0.53516480	      0.30922310	     -0.06638948	      0.25884571	      0.92436730	      0.30883479	     23.68026236	     -3.37176097	    -11.92573615	    -54.68408254	      2.95134026	      1.07766114	      7.74864000	      1.73196206	      4.41885980	     -0.00191784	    -12.35071189	      9.99096779	     -7.18697217	      3.35098755	     -6.41381641	     -3.73407234	     -1.44181399
      1.34566667	      0.59163880	      0.17349751	      0.16948073	      0.26398991	      0.92482832	      0.30850651	     23.83642829	     -3.21427749	    -12.08192119	    -53.14918959	      3.09170789	      0.88119051	      7.64644136	      1.11026890	      4.26119811	      0.13642740	    -11.91496135	     10.00277136	     -7.04152409	      3.38399741	     -6.51081026	     -3.53620825	     -1.64773491
      1.34983333	      0.66722822	      0.06084357	      0.39618824	      0.26914104	      0.92524321	      0.30818910	     23.95943746	     -3.07773449	    -12.22147452	    -51.57967421	      3.16550086	      0.62444923	      7.53375572	      0.45688265	      4.12592079	      0.28139044	    -11.45631150	     10.05444632	     -6.89068470	      3.42035084	     -6.63059650	     -3.36694022	     -1.90567748
      1.35400000	      0.73172732	     -0.03925336	      0.62472042	      0.27429109	      0.92557094	      0.30787050	     24.07900646	     -2.95525574	    -12.35897254	    -49.97407355	      3.21208961	      0.35546260	      7.41774936	     -0.17688238	      4.00040109	      0.42694096	    -11.01165088	     10.10769017	     -6.74203543	      3.45724159	     -6.73407303	     -3.21126902	     -2.16577401
      1.35816667	      0.79448933	     -0.12750041	      0.85788188	      0.27944532	      0.92583063	      0.30754387	     24.18170196	     -2.84613371	    -12.49497049	    -48.32959113	      3.22180120	      0.05860568	      7.29154413	     -0.80202322	      3.88364161	      0.57580821	    -10.58095521	     10.17133012	     -6.59125916	      3.49658774	     -6.83672928	     -3.06698666	     -2.43931568
      1.36233333	      0.84602818	     -0.20444494	      1.09298964	      0.28460186	      0.92600877	      0.30722599	     24.27973156	     -2.74844867	    -12.63140942	    -46.65106354	      3.20929684	     -0.24599418	      7.16163549	     -1.40818784	      3.77426426	      0.72347293	    -10.16278942	     10.23591953	     -6.44321498	      3.53581626	     -6.92560711	     -2.94140880	     -2.70695286
